<?xml version="1.0" encoding="UTF-8"?>
<!DOCTYPE svg PUBLIC "-//W3C//DTD SVG 1.1//EN" "http://www.w3.org/Graphics/SVG/1.1/DTD/svg11.dtd">
<svg xmlns="http://www.w3.org/2000/svg" version="1.1" width="737px" height="304px" style="shape-rendering:geometricPrecision; text-rendering:geometricPrecision; image-rendering:optimizeQuality; fill-rule:evenodd; clip-rule:evenodd" xmlns:xlink="http://www.w3.org/1999/xlink">
<g><path style="opacity:0.986" fill="#030302" d="M 406.5,1.5 C 416.878,1.19626 427.211,1.69626 437.5,3C 458.247,8.02019 478.914,13.3535 499.5,19C 508.483,24.3276 513.983,32.1609 516,42.5C 518.921,46.0916 522.421,48.9249 526.5,51C 535.198,51.7802 543.865,52.7802 552.5,54C 564.84,57.6733 573.34,65.5066 578,77.5C 583.539,104.195 589.206,130.861 595,157.5C 598.819,170.959 603.819,183.959 610,196.5C 613.758,208.658 614.425,220.991 612,233.5C 608.373,239.131 603.54,243.298 597.5,246C 581.454,246.921 565.454,246.588 549.5,245C 540.337,239.504 533.671,231.837 529.5,222C 523.917,218.518 518.584,218.851 513.5,223C 503.267,234.752 490.267,240.086 474.5,239C 466.248,242.918 460.415,249.084 457,257.5C 453.358,262.146 448.858,265.646 443.5,268C 406.63,269.567 372.297,279.567 340.5,298C 323.958,302.316 307.292,302.649 290.5,299C 271.777,294.203 253.11,289.203 234.5,284C 221.754,275.508 217.754,263.841 222.5,249C 219.98,242.314 215.313,237.814 208.5,235.5C 184.44,240.772 160.107,242.606 135.5,241C 123.998,235.666 119.331,226.666 121.5,214C 126.41,165.96 132.91,118.127 141,70.5C 144.546,65.2866 149.046,61.12 154.5,58C 169.83,57.8329 185.163,57.9996 200.5,58.5C 221.547,58.3417 242.547,57.5084 263.5,56C 272.322,49.0895 281.322,42.4228 290.5,36C 315.751,33.8535 340.418,28.8535 364.5,21C 374.99,15.9219 385.323,10.5886 395.5,5C 399.254,3.69123 402.921,2.52456 406.5,1.5 Z"/></g>
<g><path style="opacity:1" fill="#fba5e2" d="M 414.5,19.5 C 441.611,25.4745 468.444,32.4745 495,40.5C 490.634,57.7819 486.134,75.1153 481.5,92.5C 478.482,92.6646 475.482,92.498 472.5,92C 470.695,89.5971 468.362,87.9305 465.5,87C 451.928,81.6999 441.761,85.5332 435,98.5C 425.774,106.05 418.44,115.05 413,125.5C 410.334,113.505 407.668,101.505 405,89.5C 403.933,84.6324 402.266,79.9658 400,75.5C 393.176,72.67 386.676,69.17 380.5,65C 377.576,64.0124 374.576,63.3457 371.5,63C 370.978,62.4387 370.645,61.772 370.5,61C 372.521,53.9713 374.521,46.9713 376.5,40C 390.569,35.4702 403.236,28.6369 414.5,19.5 Z"/></g>
<g><path style="opacity:1" fill="#00f0fb" d="M 366.5,42.5 C 367.675,42.281 368.675,42.6143 369.5,43.5C 367.197,49.6877 365.53,56.0211 364.5,62.5C 355.253,62.6439 351.419,67.3106 353,76.5C 353.934,79.1362 354.768,81.8029 355.5,84.5C 354.167,88.1667 354.167,91.8333 355.5,95.5C 349.371,118.15 343.371,140.817 337.5,163.5C 323.383,165.523 309.383,168.19 295.5,171.5C 296.624,141.465 298.957,111.465 302.5,81.5C 301.34,75.5228 298.007,71.1895 292.5,68.5C 294.073,63.2805 295.74,58.1138 297.5,53C 321.148,52.8848 344.148,49.3848 366.5,42.5 Z"/></g>
<g><path style="opacity:1" fill="#faf55e" d="M 520.5,66.5 C 524.106,66.9389 526.272,68.9389 527,72.5C 529.642,69.9293 532.808,68.596 536.5,68.5C 540.176,69.1713 543.843,69.838 547.5,70.5C 545.92,78.5877 549.253,82.2544 557.5,81.5C 564.62,111.32 571.12,141.32 577,171.5C 581.075,187.309 587.075,202.309 595,216.5C 595.334,218.847 595.167,221.181 594.5,223.5C 593.5,223.5 592.5,223.5 591.5,223.5C 591.313,225.564 590.813,227.564 590,229.5C 585.39,224.28 582.39,218.28 581,211.5C 579.561,209.986 578.061,209.653 576.5,210.5C 578.371,215.074 580.371,219.574 582.5,224C 578.656,226.117 574.656,227.951 570.5,229.5C 568.893,229.363 567.559,228.696 566.5,227.5C 562.272,218.045 557.772,208.711 553,199.5C 552.333,198.167 552.333,196.833 553,195.5C 557.865,201.978 558.531,201.311 555,193.5C 553.605,194.815 552.605,194.481 552,192.5C 544.553,172.099 539.72,151.099 537.5,129.5C 536.5,129.5 535.5,129.5 534.5,129.5C 533.942,132.344 533.275,135.178 532.5,138C 534.133,141.43 533.133,142.264 529.5,140.5C 519.594,168.451 505.261,194.284 486.5,218C 485.216,218.684 484.049,218.517 483,217.5C 482.922,215.343 482.755,213.343 482.5,211.5C 480.541,215.96 477.207,218.793 472.5,220C 465.703,220.936 459.036,220.436 452.5,218.5C 451.479,217.998 451.312,217.332 452,216.5C 454.333,213.833 456.667,211.167 459,208.5C 459.497,205.854 459.664,203.187 459.5,200.5C 462.959,199.564 465.793,197.564 468,194.5C 474.7,184.436 480.367,173.769 485,162.5C 498.621,130.03 510.454,98.0295 520.5,66.5 Z"/></g>
<g><path style="opacity:1" fill="#fbf65f" d="M 351.5,192.5 C 349.411,192.857 347.411,193.523 345.5,194.5C 346.887,194.807 348.554,194.807 350.5,194.5C 355.056,195.586 359.556,195.586 364,194.5C 364.494,196.134 364.66,197.801 364.5,199.5C 344.144,204.172 323.811,209.005 303.5,214C 290.5,219 277.5,224 264.5,229C 262.167,229.667 259.833,229.667 257.5,229C 254.458,225.299 251.458,221.632 248.5,218C 249.307,215.061 251.307,213.228 254.5,212.5C 255.647,210.235 255.814,207.902 255,205.5C 252.102,202.952 250.602,199.786 250.5,196C 252.717,169.107 255.384,142.274 258.5,115.5C 258.833,117 259.167,118.5 259.5,120C 258.931,123.817 258.597,127.651 258.5,131.5C 257.549,132.919 257.216,134.585 257.5,136.5C 258.5,136.5 259.5,136.5 260.5,136.5C 260.5,137.833 260.5,139.167 260.5,140.5C 260.5,140.833 260.5,141.167 260.5,141.5C 259.409,147.133 258.409,152.799 257.5,158.5C 257.722,160.055 258.389,161.389 259.5,162.5C 257.453,168.062 257.12,173.729 258.5,179.5C 260.362,167.252 261.695,154.918 262.5,142.5C 263.954,121.507 265.287,100.507 266.5,79.5C 267.822,79.67 268.989,79.3366 270,78.5C 270.891,72.3898 273.891,71.0564 279,74.5C 279.498,77.4816 279.665,80.4816 279.5,83.5C 283.453,83.3456 287.119,82.3456 290.5,80.5C 287.713,115.492 285.046,150.492 282.5,185.5C 303.764,179.123 325.43,175.456 347.5,174.5C 331.797,177.451 316.13,180.617 300.5,184C 294.1,185.355 288.1,187.688 282.5,191C 300.821,188.608 319.155,185.108 337.5,180.5C 340.124,179.973 342.624,180.64 345,182.5C 352.096,180.367 359.263,180.033 366.5,181.5C 366.813,184.247 366.48,186.914 365.5,189.5C 361.094,191.702 356.427,192.702 351.5,192.5 Z"/></g>
<g><path style="opacity:1" fill="#f9f45e" d="M 190.5,97.5 C 188.167,97.5 185.833,97.5 183.5,97.5C 183.232,99.099 183.566,100.432 184.5,101.5C 197.87,101.438 211.204,102.105 224.5,103.5C 224.291,104.086 223.957,104.586 223.5,105C 209.512,106.465 195.512,107.799 181.5,109C 180.054,115.731 179.054,122.564 178.5,129.5C 177.566,130.568 177.232,131.901 177.5,133.5C 179.735,133.795 181.735,133.461 183.5,132.5C 199.463,130.781 215.463,129.947 231.5,130C 232.337,131.011 232.67,132.178 232.5,133.5C 231.127,133.343 229.793,133.51 228.5,134C 232.465,135.126 236.465,136.126 240.5,137C 240.957,137.414 241.291,137.914 241.5,138.5C 240.363,141.47 238.363,143.636 235.5,145C 221.402,150.821 206.735,154.488 191.5,156C 183.833,156.333 176.167,156.667 168.5,157C 169.167,157.667 169.833,158.333 170.5,159C 167.65,167.055 164.316,174.888 160.5,182.5C 159.52,179.914 159.187,177.247 159.5,174.5C 160.803,171.645 160.803,168.645 159.5,165.5C 158.893,165.624 158.56,165.957 158.5,166.5C 157.425,174.849 156.591,183.182 156,191.5C 183.631,186.261 211.465,184.761 239.5,187C 240.059,187.725 240.392,188.558 240.5,189.5C 239.965,193.518 239.298,197.518 238.5,201.5C 236.075,203.145 233.408,204.311 230.5,205C 226.459,205.173 222.459,205.673 218.5,206.5C 223.12,207.493 227.786,207.827 232.5,207.5C 232.5,209.167 232.5,210.833 232.5,212.5C 205.728,215.634 179.062,219.467 152.5,224C 148.5,224.667 144.5,224.667 140.5,224C 135.957,222.957 133.957,220.124 134.5,215.5C 135.612,207.886 137.278,200.386 139.5,193C 138.057,190.922 138.724,190.089 141.5,190.5C 141.335,193.518 141.502,196.518 142,199.5C 143.054,196.307 144.554,193.307 146.5,190.5C 146.045,183.894 146.045,177.227 146.5,170.5C 142.711,171.734 141.211,174.401 142,178.5C 142.414,178.043 142.914,177.709 143.5,177.5C 144.489,181.107 144.823,184.774 144.5,188.5C 142.972,187.198 141.972,185.531 141.5,183.5C 140.839,184.718 140.172,186.051 139.5,187.5C 139.167,186.167 138.833,184.833 138.5,183.5C 140.058,172.877 142.058,162.377 144.5,152C 143.833,151.667 143.167,151.333 142.5,151C 146.031,146.432 147.031,141.432 145.5,136C 146.302,126.416 147.635,116.916 149.5,107.5C 150.167,107.833 150.833,108.167 151.5,108.5C 151.676,96.5958 153.343,84.9292 156.5,73.5C 157.478,73.9767 158.311,74.6433 159,75.5C 160.851,72.9357 162.684,72.9357 164.5,75.5C 189.445,73.7791 214.445,73.2791 239.5,74C 242.337,75.6721 244.67,77.8387 246.5,80.5C 245.707,86.775 242.707,91.6083 237.5,95C 221.879,96.5978 206.212,97.4311 190.5,97.5 Z"/></g>
<g><path style="opacity:1" fill="#fcf760" d="M 404.5,160.5 C 405.167,161.167 405.833,161.833 406.5,162.5C 405.521,165.625 405.187,168.958 405.5,172.5C 406.791,172.737 407.791,172.404 408.5,171.5C 416.734,154.023 426.734,137.689 438.5,122.5C 439.086,122.709 439.586,123.043 440,123.5C 441.873,121.61 442.706,119.61 442.5,117.5C 441.186,118.313 440.019,119.313 439,120.5C 438.333,119.833 438.333,119.167 439,118.5C 445.385,111.571 451.885,104.738 458.5,98C 459.833,97.3333 461.167,97.3333 462.5,98C 464.833,100.333 467.167,102.667 469.5,105C 466.5,108.667 463.5,112.333 460.5,116C 462.473,116.495 464.473,116.662 466.5,116.5C 467.178,110.815 470.178,106.815 475.5,104.5C 476.765,106.357 476.432,108.024 474.5,109.5C 472.271,110.055 470.605,111.389 469.5,113.5C 470.689,114.429 472.022,114.762 473.5,114.5C 473.433,113.041 473.766,111.708 474.5,110.5C 475.708,109.766 477.041,109.433 478.5,109.5C 478.5,111.167 478.5,112.833 478.5,114.5C 467.593,124.956 458.093,136.623 450,149.5C 437.754,172.327 425.254,194.994 412.5,217.5C 409.546,218.147 406.546,218.314 403.5,218C 401.081,219.509 400.081,221.675 400.5,224.5C 394.291,225.755 389.291,224.089 385.5,219.5C 384.344,215.146 384.178,210.812 385,206.5C 382.748,207.907 381.582,209.907 381.5,212.5C 382.182,214.841 382.849,217.174 383.5,219.5C 381.621,220.341 379.621,220.675 377.5,220.5C 377.636,217.449 377.302,214.449 376.5,211.5C 377.902,206.263 378.569,200.929 378.5,195.5C 377.737,171.813 376.571,148.147 375,124.5C 374.259,117.463 373.259,110.463 372,103.5C 370.922,98.0131 368.756,93.0131 365.5,88.5C 367.009,83.548 366.342,78.8814 363.5,74.5C 375.759,71.794 383.425,76.4607 386.5,88.5C 387.466,86.604 387.799,84.604 387.5,82.5C 389.451,82.2267 390.951,82.8934 392,84.5C 399.767,109.461 403.933,134.795 404.5,160.5 Z"/></g>
<g><path style="opacity:1" fill="#1c1b0e" d="M 524.5,77.5 C 523.833,79.1667 523.167,80.8333 522.5,82.5C 520.988,78.8854 521.821,75.8854 525,73.5C 525.195,74.8193 525.028,76.1526 524.5,77.5 Z"/></g>
<g><path style="opacity:1" fill="#908e36" d="M 524.5,77.5 C 524.663,79.8568 524.497,82.1902 524,84.5C 523.283,83.9558 522.783,83.2891 522.5,82.5C 523.167,80.8333 523.833,79.1667 524.5,77.5 Z"/></g>
<g><path style="opacity:1" fill="#dd91c7" d="M 442.5,94.5 C 444.337,94.6395 444.67,95.3061 443.5,96.5C 442.702,96.0431 442.369,95.3764 442.5,94.5 Z"/></g>
<g><path style="opacity:1" fill="#ede266" d="M 450.5,96.5 C 452.028,96.5173 452.528,97.184 452,98.5C 449.984,100.684 447.817,102.684 445.5,104.5C 445.548,101.11 447.215,98.4434 450.5,96.5 Z"/></g>
<g><path style="opacity:1" fill="#565420" d="M 190.5,97.5 C 188.735,98.4614 186.735,98.7947 184.5,98.5C 184.5,99.5 184.5,100.5 184.5,101.5C 183.566,100.432 183.232,99.099 183.5,97.5C 185.833,97.5 188.167,97.5 190.5,97.5 Z"/></g>
<g><path style="opacity:1" fill="#070702" d="M 550.5,101.5 C 551.496,101.414 552.329,101.748 553,102.5C 553.667,106.5 553.667,110.5 553,114.5C 549.79,110.567 548.957,106.234 550.5,101.5 Z"/></g>
<g><path style="opacity:1" fill="#aea44f" d="M 475.5,104.5 C 475.56,103.957 475.893,103.624 476.5,103.5C 477.616,106.124 478.616,108.79 479.5,111.5C 479.48,112.726 479.147,113.726 478.5,114.5C 478.5,112.833 478.5,111.167 478.5,109.5C 477.041,109.433 475.708,109.766 474.5,110.5C 474.5,110.167 474.5,109.833 474.5,109.5C 476.432,108.024 476.765,106.357 475.5,104.5 Z"/></g>
<g><path style="opacity:1" fill="#2b2221" d="M 474.5,109.5 C 474.5,109.833 474.5,110.167 474.5,110.5C 473.766,111.708 473.433,113.041 473.5,114.5C 472.022,114.762 470.689,114.429 469.5,113.5C 470.605,111.389 472.271,110.055 474.5,109.5 Z"/></g>
<g><path style="opacity:1" fill="#ebe166" d="M 438.5,109.5 C 439.465,110.721 439.298,112.054 438,113.5C 433.333,119.5 428.667,125.5 424,131.5C 424.374,128.725 425.374,126.058 427,123.5C 430.603,118.619 434.436,113.952 438.5,109.5 Z"/></g>
<g><path style="opacity:1" fill="#2e2c14" d="M 554.5,121.5 C 556.175,123.179 557.008,125.179 557,127.5C 555.337,125.842 554.504,123.842 554.5,121.5 Z"/></g>
<g><path style="opacity:1" fill="#4d3a3d" d="M 454.5,119.5 C 456.225,119.843 456.725,120.843 456,122.5C 454.327,125.001 452.493,127.334 450.5,129.5C 450.167,129.167 449.833,128.833 449.5,128.5C 451.445,125.607 453.111,122.607 454.5,119.5 Z"/></g>
<g><path style="opacity:1" fill="#3c3a1b" d="M 379.5,129.5 C 380.5,129.5 381.5,129.5 382.5,129.5C 382.5,132.5 382.5,135.5 382.5,138.5C 381.5,138.5 380.5,138.5 379.5,138.5C 379.5,135.5 379.5,132.5 379.5,129.5 Z"/></g>
<g><path style="opacity:1" fill="#939037" d="M 178.5,129.5 C 178.5,130.5 178.5,131.5 178.5,132.5C 180.167,132.5 181.833,132.5 183.5,132.5C 181.735,133.461 179.735,133.795 177.5,133.5C 177.232,131.901 177.566,130.568 178.5,129.5 Z"/></g>
<g><path style="opacity:1" fill="#716f2a" d="M 258.5,131.5 C 258.5,132.833 258.5,134.167 258.5,135.5C 259.5,135.5 260.5,135.5 261.5,135.5C 261.784,137.415 261.451,139.081 260.5,140.5C 260.5,139.167 260.5,137.833 260.5,136.5C 259.5,136.5 258.5,136.5 257.5,136.5C 257.216,134.585 257.549,132.919 258.5,131.5 Z"/></g>
<g><path style="opacity:1" fill="#1c1a0d" d="M 505.5,128.5 C 506.097,128.735 506.43,129.235 506.5,130C 504.459,136.624 502.126,143.124 499.5,149.5C 500.224,142.307 502.224,135.307 505.5,128.5 Z"/></g>
<g><path style="opacity:1" fill="#e7db67" d="M 417.5,138.5 C 418.693,138.97 419.36,139.97 419.5,141.5C 419.743,143.922 418.743,145.588 416.5,146.5C 415.522,143.732 415.855,141.066 417.5,138.5 Z"/></g>
<g><path style="opacity:1" fill="#1f1e0f" d="M 260.5,141.5 C 261.167,141.833 261.833,142.167 262.5,142.5C 261.695,154.918 260.362,167.252 258.5,179.5C 257.12,173.729 257.453,168.062 259.5,162.5C 258.389,161.389 257.722,160.055 257.5,158.5C 258.409,152.799 259.409,147.133 260.5,141.5 Z"/></g>
<g><path style="opacity:1" fill="#1d1b0e" d="M 381.5,144.5 C 382.82,147.428 383.486,150.761 383.5,154.5C 383.167,157.833 382.833,161.167 382.5,164.5C 381.503,157.866 381.17,151.2 381.5,144.5 Z"/></g>
<g><path style="opacity:1" fill="#f9a3e0" d="M 465.5,145.5 C 466.097,145.735 466.43,146.235 466.5,147C 456.77,181.084 447.27,215.251 438,249.5C 413.853,250.783 390.019,254.45 366.5,260.5C 368.387,250.9 370.72,241.4 373.5,232C 379.226,230.896 384.56,231.896 389.5,235C 394.167,235.667 398.833,235.667 403.5,235C 406.368,234.139 408.702,232.472 410.5,230C 414.039,229.813 417.205,228.646 420,226.5C 434.994,199.355 450.161,172.355 465.5,145.5 Z"/></g>
<g><path style="opacity:1" fill="#d1be6c" d="M 413.5,148.5 C 414.559,150.07 414.059,151.403 412,152.5C 411.7,150.934 412.2,149.601 413.5,148.5 Z"/></g>
<g><path style="opacity:1" fill="#18160b" d="M 493.5,155.5 C 494.239,155.369 494.906,155.536 495.5,156C 494.142,159.073 492.975,162.24 492,165.5C 491.5,165 491,164.5 490.5,164C 491.798,161.273 492.798,158.44 493.5,155.5 Z"/></g>
<g><path style="opacity:1" fill="#dad652" d="M 200.5,157.5 C 203.247,157.187 205.914,157.52 208.5,158.5C 207.975,159.192 207.308,159.692 206.5,160C 195.205,161.597 183.872,162.263 172.5,162C 171.663,160.989 171.33,159.822 171.5,158.5C 178.206,158.243 184.872,158.576 191.5,159.5C 194.674,159.009 197.674,158.343 200.5,157.5 Z"/></g>
<g><path style="opacity:1" fill="#a0856a" d="M 404.5,160.5 C 405.675,160.281 406.675,160.614 407.5,161.5C 407.376,162.107 407.043,162.44 406.5,162.5C 405.833,161.833 405.167,161.167 404.5,160.5 Z"/></g>
<g><path style="opacity:1" fill="#deda53" d="M 532.5,148.5 C 534.759,152.771 536.926,157.105 539,161.5C 539.43,164.192 539.263,166.859 538.5,169.5C 537.5,169.5 536.5,169.5 535.5,169.5C 535.666,165.486 535.499,161.486 535,157.5C 533.451,154.688 532.618,151.688 532.5,148.5 Z"/></g>
<g><path style="opacity:1" fill="#c3ad6c" d="M 406.5,162.5 C 405.945,166.012 406.612,169.012 408.5,171.5C 407.791,172.404 406.791,172.737 405.5,172.5C 405.187,168.958 405.521,165.625 406.5,162.5 Z"/></g>
<g><path style="opacity:1" fill="#262511" d="M 144.5,155.5 C 145.811,159.683 145.811,164.016 144.5,168.5C 144.064,164.244 144.064,159.911 144.5,155.5 Z"/></g>
<g><path style="opacity:1" fill="#817f30" d="M 158.5,166.5 C 158.56,165.957 158.893,165.624 159.5,165.5C 160.803,168.645 160.803,171.645 159.5,174.5C 159.806,171.615 159.473,168.948 158.5,166.5 Z"/></g>
<g><path style="opacity:1" fill="#433235" d="M 423.5,178.5 C 424.239,178.369 424.906,178.536 425.5,179C 423.667,180.833 421.833,182.667 420,184.5C 419.333,183.833 419.333,183.167 420,182.5C 421.376,181.295 422.542,179.962 423.5,178.5 Z"/></g>
<g><path style="opacity:1" fill="#deda53" d="M 539.5,177.5 C 542.462,183.197 544.962,189.197 547,195.5C 548.854,199.708 549.854,204.041 550,208.5C 543.796,199.055 540.296,188.722 539.5,177.5 Z"/></g>
<g><path style="opacity:1" fill="#626024" d="M 141.5,183.5 C 141.972,185.531 142.972,187.198 144.5,188.5C 143.791,189.404 142.791,189.737 141.5,189.5C 141.5,187.5 141.5,185.5 141.5,183.5 Z"/></g>
<g><path style="opacity:1" fill="#241c1d" d="M 415.5,189.5 C 416.239,189.369 416.906,189.536 417.5,190C 415.922,193.651 414.256,197.151 412.5,200.5C 411.28,200.113 410.613,199.28 410.5,198C 411.541,194.743 413.208,191.91 415.5,189.5 Z"/></g>
<g><path style="opacity:1" fill="#6b6928" d="M 351.5,192.5 C 351.167,193.167 350.833,193.833 350.5,194.5C 348.554,194.807 346.887,194.807 345.5,194.5C 347.411,193.523 349.411,192.857 351.5,192.5 Z"/></g>
<g><path style="opacity:1" fill="#1a180b" d="M 568.5,191.5 C 570.908,194.342 572.574,197.676 573.5,201.5C 572.675,202.386 571.675,202.719 570.5,202.5C 569.992,198.803 569.326,195.136 568.5,191.5 Z"/></g>
<g><path style="opacity:1" fill="#00f1fc" d="M 362.5,210.5 C 363.5,210.5 364.5,210.5 365.5,210.5C 366.304,216.023 367.304,221.523 368.5,227C 365.091,238.803 361.757,250.636 358.5,262.5C 344.599,268.115 331.599,275.282 319.5,284C 292.723,277.805 266.056,270.972 239.5,263.5C 241.385,253.628 244.052,243.961 247.5,234.5C 252.206,240.146 258.206,241.979 265.5,240C 278.911,235.197 292.244,230.197 305.5,225C 324.675,220.338 343.675,215.505 362.5,210.5 Z"/></g>
<g><path style="opacity:1" fill="#161509" d="M 585.5,214.5 C 586.708,215.234 588.041,215.567 589.5,215.5C 589.662,217.527 589.495,219.527 589,221.5C 586.762,219.691 585.595,217.358 585.5,214.5 Z"/></g>
<g><path style="opacity:1" fill="#e3de55" d="M 552.5,214.5 C 553.675,214.281 554.675,214.614 555.5,215.5C 557,218.5 558.5,221.5 560,224.5C 560.351,228.099 559.351,228.433 557,225.5C 554.934,222.039 553.434,218.373 552.5,214.5 Z"/></g>
<g><path style="opacity:1" fill="#594541" d="M 385.5,219.5 C 384.833,219.5 384.167,219.5 383.5,219.5C 382.849,217.174 382.182,214.841 381.5,212.5C 381.582,209.907 382.748,207.907 385,206.5C 384.178,210.812 384.344,215.146 385.5,219.5 Z"/></g>
</svg>
